<svg xmlns="http://www.w3.org/2000/svg" viewBox="0 0 520 100" width="100%" height="100%">
  <defs>
    <linearGradient id="mft-icon-bg" x1="0%" y1="0%" x2="100%" y2="100%">
      <stop offset="0%" stop-color="#1e3a8a" />
      <stop offset="60%" stop-color="#1e40af" />
      <stop offset="100%" stop-color="#0f172a" />
    </linearGradient>
    <linearGradient id="mft-cap-grad" x1="0%" y1="0%" x2="100%" y2="100%">
      <stop offset="0%" stop-color="#38bdf8" />
      <stop offset="100%" stop-color="#2563eb" />
    </linearGradient>
    <filter id="mft-shadow" x="-10%" y="-10%" width="130%" height="130%">
      <feDropShadow dx="0" dy="2" stdDeviation="3" flood-color="#0f172a" flood-opacity="0.18" />
    </filter>
  </defs>

  <!-- Icon Container Badge -->
  <g transform="translate(10, 10)" filter="url(#mft-shadow)">
    <rect x="0" y="0" width="80" height="80" rx="18" fill="url(#mft-icon-bg)" stroke="#3b82f6" stroke-width="1.5" stroke-opacity="0.4" />
    
    <!-- Open Knowledge Pages / Book -->
    <g transform="translate(11, 11) scale(1.6)">
      <path d="M5 26.5C8.5 24.5 13 24.8 18 27.5C23 24.8 27.5 24.5 31 26.5V11C27.5 9 23 9.3 18 12C13 9.3 8.5 9 5 11V26.5Z" fill="#ffffff" fill-opacity="0.18" />
      <path d="M5 26.5C8.5 24.5 13 24.8 18 27.5V12C13 9.3 8.5 9 5 11V26.5Z" stroke="#ffffff" stroke-width="1.8" stroke-linecap="round" stroke-linejoin="round" />
      <path d="M31 26.5C27.5 24.5 23 24.8 18 27.5V12C23 9.3 27.5 9 31 11V26.5Z" stroke="#ffffff" stroke-width="1.8" stroke-linecap="round" stroke-linejoin="round" />
      
      <!-- Spine Divider -->
      <line x1="18" y1="12" x2="18" y2="28" stroke="#60a5fa" stroke-width="1.8" stroke-linecap="round" />
      
      <!-- Stylized Academy Graduation Cap -->
      <path d="M18 4L28 9L18 14L8 9L18 4Z" fill="url(#mft-cap-grad)" stroke="#e0f2fe" stroke-width="1.2" stroke-linejoin="round" />
      
      <!-- Tassel & Ribbon -->
      <path d="M26 10V16.5C26 17 25 17.5 25 18" stroke="#f87171" stroke-width="1.5" stroke-linecap="round" />
      <circle cx="25" cy="18.5" r="1.2" fill="#ef4444" />
      
      <!-- Golden Star Crest -->
      <circle cx="18" cy="8.8" r="1.5" fill="#fbbf24" />
    </g>
  </g>

  <!-- Typography Brand Name -->
  <g transform="translate(108, 48)">
    <text font-family="-apple-system, BlinkMacSystemFont, 'Segoe UI', Roboto, Helvetica, Arial, sans-serif" font-weight="800" font-size="34" fill="#0f172a" letter-spacing="-0.5">
      Marketplace<tspan fill="#dc2626" font-weight="900">ForTeachers</tspan><tspan fill="#64748b" font-size="22" font-weight="600">.com</tspan>
    </text>
  </g>

  <!-- Subtitle / Tagline -->
  <g transform="translate(110, 75)">
    <text font-family="-apple-system, BlinkMacSystemFont, 'Segoe UI', Roboto, Helvetica, Arial, sans-serif" font-weight="700" font-size="13.5" fill="#475569" letter-spacing="1.8">
      VERIFIED EDUCATOR SUPPLY EXCHANGE
    </text>
  </g>
</svg>
